<?xml version="1.0" standalone="no"?>
<!DOCTYPE svg PUBLIC "-//W3C//DTD SVG 20010904//EN"
 "http://www.w3.org/TR/2001/REC-SVG-20010904/DTD/svg10.dtd">
<svg version="1.0" xmlns="http://www.w3.org/2000/svg"
 width="700.000000pt" height="700.000000pt" viewBox="0 0 700.000000 700.000000"
 preserveAspectRatio="xMidYMid meet">
<metadata>
Created by potrace 1.14, written by Peter Selinger 2001-2017
</metadata>
<g transform="translate(0.000000,700.000000) scale(0.100000,-0.100000)"
fill="#000000" stroke="none">
<path d="M5148 4799 c-943 -895 -1021 -971 -1055 -1023 -101 -157 -85 -379 37
-522 52 -61 1832 -1745 1841 -1742 18 6 348 362 343 370 -3 5 -394 378 -870
829 -475 451 -864 824 -864 829 0 4 391 378 869 831 478 453 869 827 868 831
-3 11 -341 368 -349 368 -3 0 -372 -347 -820 -771z"/>
<path d="M2575 3702 c-28 -10 -70 -29 -95 -44 -26 -15 -423 -405 -925 -907
l-880 -881 180 -180 180 -180 836 836 836 836 878 -834 c482 -458 881 -834
886 -836 4 -2 54 45 111 105 57 59 136 142 176 184 l72 76 -920 873 c-506 481
-939 886 -963 902 -96 65 -265 87 -372 50z"/>
</g>
</svg>
